# xmcd CD database file
#
# Track frame offsets:
#	150
#	24780
#	43980
#	65023
#	83578
#	102443
#	120943
#	141038
#	157950
#
# Disc length: 2402 seconds
#
# Revision: 1
# Processed by: cddbd v1.5.1PL0 Copyright (c) Steve Scherf et al.
# Submitted via: CDex 1.51
#
DISCID=69096009
DTITLE=Count Basie and The Kansas City 7 - Master Sessions
DYEAR=1900
DGENRE=Jazz
TTITLE0=Count´s Place
TTITLE1=I want a little girl
TTITLE2=Oh, Lady be good
TTITLE3=Secrets
TTITLE4=Senator Whitehead
TTITLE5=Shoe shine boy
TTITLE6=Tally-Ho, Mr.
TTITLE7=Try of hearts
TTITLE8=Watcha talkin
EXTD=
EXTT0=
EXTT1=
EXTT2=
EXTT3=
EXTT4=
EXTT5=
EXTT6=
EXTT7=
EXTT8=
PLAYORDER=
